<svg xmlns="http://www.w3.org/2000/svg" width="24" height="22" viewBox="0 0 24 22">
  <g id="Heart" transform="translate(-305 -64)">
    <g id="Iconly_Two-tone_Heart" data-name="Iconly/Two-tone/Heart" transform="translate(305 64)">
      <g id="Heart-2" data-name="Heart" transform="translate(2 2.75)">
        <path id="Path_33961" d="M9.748,16.366a36.474,36.474,0,0,1-6.339-4.3A10.905,10.905,0,0,1,.393,7.879,5.641,5.641,0,0,1,4.285.264,7.061,7.061,0,0,1,10,1.1h0a7.072,7.072,0,0,1,5.71-.838,5.646,5.646,0,0,1,3.9,7.616,10.9,10.9,0,0,1-3.017,4.189,36.474,36.474,0,0,1-6.339,4.3l-.247.134Z" transform="translate(0 0)" fill="none" stroke="#fff" stroke-linecap="round" stroke-linejoin="round" stroke-miterlimit="10" stroke-width="1.5"/>
        <path id="Path_33964" d="M0,0A2.649,2.649,0,0,1,2.018,2.22" transform="translate(13.936 3.715)" fill="none" stroke="#fed130" stroke-linecap="round" stroke-linejoin="round" stroke-miterlimit="10" stroke-width="1.5"/>
      </g>
    </g>
  </g>
</svg>
