<svg id="Iconly_Two-tone_Notification" data-name="Iconly/Two-tone/Notification" xmlns="http://www.w3.org/2000/svg" width="24" height="22" viewBox="0 0 24 22">
  <g id="Notification" transform="translate(3.5 1.833)">
    <path id="Path_425" d="M0,10.8v-.2A3.119,3.119,0,0,1,.6,8.937,4.347,4.347,0,0,0,1.8,6.816c0-.611,0-1.231.058-1.842C2.155,2.034,5.327,0,8.461,0h.078c3.134,0,6.306,2.034,6.617,4.975.058.611,0,1.231.049,1.842A4.421,4.421,0,0,0,16.4,8.946,3.038,3.038,0,0,1,17,10.6V10.8a3.106,3.106,0,0,1-.844,2.191A4.679,4.679,0,0,1,13.3,14.244a49.153,49.153,0,0,1-9.615,0A4.73,4.73,0,0,1,.835,12.987,3.137,3.137,0,0,1,0,10.8Z" transform="translate(0 0)" fill="none" stroke="#fff" stroke-linecap="round" stroke-linejoin="round" stroke-miterlimit="10" stroke-width="1.5"/>
    <path id="Path_421" d="M0,0A3.141,3.141,0,0,0,2.037,1.033,3.294,3.294,0,0,0,4.288.463,2.792,2.792,0,0,0,4.812,0" transform="translate(6.055 17.281)" fill="none" stroke="#fed130" stroke-linecap="round" stroke-linejoin="round" stroke-miterlimit="10" stroke-width="1.5"/>
  </g>
</svg>
